<svg xmlns="http://www.w3.org/2000/svg" aria-hidden="true" style="position:absolute;width:0;height:0;overflow:hidden">
  <defs>
    <symbol id="icon-myteam-logo" viewBox="0 0 128 32">
      <path d="M54.654 23.625h-4.936v-13.054h-3.035v-4.018h3.035v-6.554h4.936v6.554h3.506v4.018h-3.506v13.054zM4.971 14.589c0-1.19 0.267-2.065 0.802-2.625s1.209-0.839 2.023-0.839c0.814 0 1.477 0.292 1.988 0.875 0.5 0.583 0.773 1.387 0.82 2.411v9.214h4.971v-9.036c0-1.167 0.256-2.036 0.767-2.607s1.192-0.857 2.041-0.857c0.849 0 1.535 0.304 2.058 0.911 0.5 0.607 0.75 1.435 0.75 2.482v9.107h4.919v-9.696c0-2.476-0.552-4.387-1.657-5.732s-2.704-2.018-4.797-2.018-3.75 1.012-4.971 3.036c-0.93-2-2.715-3-5.355-3-0.93 0-1.802 0.244-2.616 0.732-0.756 0.512-1.337 1.208-1.744 2.089v-2.482h-4.971v17.071h4.971v-9.036zM45.998 6.554h-5.285l-3.715 9.679-3.68-9.679h-5.285l6.436 15.321-4.012 10.125h5.25l10.291-25.446zM76.234 20.518l-3.61-2.518c-0.837 1.071-2.052 1.607-3.645 1.607-1.023 0-1.942-0.25-2.756-0.75s-1.267-1.202-1.36-2.107h12.227c0.046-1.024 0.070-1.548 0.070-1.571-0.012-2.667-0.831-4.833-2.459-6.5s-3.669-2.5-6.122-2.5c-2.453-0.012-4.512 0.804-6.174 2.446s-2.494 3.78-2.494 6.411c0 2.631 0.831 4.786 2.494 6.464 1.686 1.655 3.756 2.482 6.209 2.482 3.535 0.012 6.076-1.143 7.622-3.464zM72.152 13.571h-7.221c0.186-0.929 0.651-1.655 1.395-2.179 0.721-0.524 1.5-0.774 2.337-0.75s1.599 0.286 2.285 0.786c0.686 0.5 1.087 1.214 1.203 2.143zM90.47 23.375c0.942-0.405 1.663-0.97 2.163-1.696v1.946h4.918v-17.071h-4.918v1.893c-0.5-0.726-1.215-1.286-2.146-1.679s-1.837-0.589-2.721-0.589c-2.174 0.012-4.134 0.839-5.878 2.482s-2.617 3.78-2.617 6.411 0.843 4.768 2.529 6.411c1.686 1.643 3.674 2.464 5.965 2.464 0.861 0.024 1.762-0.167 2.703-0.571zM88.57 19.125c-1.128 0-2.099-0.381-2.913-1.143-0.838-0.762-1.256-1.726-1.256-2.893 0-1.155 0.418-2.125 1.256-2.911 0.907-0.774 1.901-1.161 2.982-1.161s2.018 0.381 2.808 1.143c0.791 0.762 1.186 1.738 1.186 2.929s-0.395 2.161-1.186 2.911c-0.79 0.75-1.75 1.125-2.878 1.125zM106.818 14.589v9.036h-4.97v-17.071h4.97v2.482c0.407-0.881 0.989-1.577 1.745-2.089 0.814-0.488 1.686-0.732 2.616-0.732 2.639 0 4.425 1 5.354 3 1.222-2.024 2.878-3.036 4.971-3.036s3.692 0.673 4.797 2.018c1.104 1.345 1.657 3.256 1.657 5.732v9.696h-4.918v-9.107c0-1.048-0.25-1.875-0.75-2.482-0.523-0.607-1.209-0.911-2.058-0.911s-1.529 0.286-2.040 0.857c-0.512 0.571-0.768 1.44-0.768 2.607v9.036h-4.97v-9.214c-0.047-1.024-0.32-1.827-0.82-2.411-0.512-0.583-1.174-0.875-1.989-0.875s-1.488 0.28-2.023 0.839c-0.534 0.56-0.802 1.434-0.802 2.625z"></path>
    </symbol>
    <symbol id="icon-untitled" viewBox="0 0 38 32">
      <path d="M15.122 29.733C13.509 31.244 11.378 32 8.728 32c-2.708 0-4.839-.843-6.394-2.529S.001 25.402.001 22.321c0-2.093.49-4.476 1.469-7.15s2.29-5.348 3.932-8.022c1.642-2.674 3.528-5.057 5.66-7.15h6.654c-.979 2.325-1.728 4.447-2.247 6.365s-.778 3.662-.778 5.232c0 1.802.23 3.342.691 4.621s.936 2.529 1.426 3.749c.49 1.221.735 2.674.735 4.36 0 2.093-.806 3.895-2.42 5.406zm20.571 0C34.08 31.244 31.949 32 29.299 32c-2.708 0-4.839-.843-6.394-2.529s-2.333-4.069-2.333-7.15c0-2.093.49-4.476 1.469-7.15s2.29-5.348 3.932-8.022c1.642-2.674 3.528-5.057 5.66-7.15h6.654c-.979 2.325-1.728 4.447-2.247 6.365s-.778 3.662-.778 5.232c0 1.802.23 3.342.691 4.621s.936 2.529 1.426 3.749c.49 1.221.734 2.674.734 4.36 0 2.093-.806 3.895-2.42 5.406z"/>
    </symbol>
    <symbol id="icon-graph" viewBox="0 0 32 32">
      <path d="M25.333 2.667c0 .494.135.957.37 1.354L21.354 8.37a2.666 2.666 0 0 0-3.431.625l-3.257-.929.001-.067c0-1.471-1.196-2.667-2.667-2.667a2.67 2.67 0 0 0-2.434 3.756l-4.157 3.314a2.67 2.67 0 0 0-4.076 2.264A2.67 2.67 0 0 0 4 17.333a2.67 2.67 0 0 0 2.332-3.96l4.067-3.243a2.668 2.668 0 0 0 3.901-.783l3.07.876A2.67 2.67 0 0 0 20 13.332a2.67 2.67 0 0 0 2.297-4.021l4.349-4.349a2.67 2.67 0 0 0 4.021-2.297A2.67 2.67 0 0 0 28-.002a2.67 2.67 0 0 0-2.667 2.667zM10.984 8.863l-.024-.032-.027-.031a1.33 1.33 0 0 1 1.066-2.132 1.334 1.334 0 1 1-1.016 2.196zm-6.062 4.841a1.33 1.33 0 0 1 .411.962 1.334 1.334 0 0 1-2.666 0 1.334 1.334 0 0 1 2.255-.962zM27.084 3.635l-.026-.027-.027-.026a1.334 1.334 0 1 1 2.301-.916 1.334 1.334 0 0 1-2.249.968zM30 10.667h-4a.667.667 0 0 0-.667.667v19.333h-2.667V19.334a.667.667 0 0 0-.667-.667h-4a.667.667 0 0 0-.667.667v11.333h-2.667v-14a.667.667 0 0 0-.667-.667h-4a.667.667 0 0 0-.667.667v14H6.664v-7.333a.667.667 0 0 0-.667-.667h-4a.667.667 0 0 0-.667.667v7.333H.663a.667.667 0 0 0 0 1.334H31.33a.667.667 0 0 0 0-1.334h-.667V11.334a.667.667 0 0 0-.667-.667zM29.333 12v18.667h-2.667V12h2.667zm-8 18.667h-2.667V20h2.667v10.667zM10.667 17.333h2.667v13.333h-2.667V17.333zM5.333 30.667H2.666V24h2.667v6.667zM20 12c-.736 0-1.333-.599-1.333-1.333S19.264 9.334 20 9.334s1.333.599 1.333 1.333c0 .735-.597 1.333-1.333 1.333z"/>
    </symbol>
    <symbol id="icon-gear" viewBox="0 0 32 32">
      <path d="M19.375 30.75c0 .689-.561 1.25-1.25 1.25h-4.25c-.689 0-1.25-.561-1.25-1.25v-1.866a13.22 13.22 0 0 1-3.348-1.388l-1.321 1.321a1.252 1.252 0 0 1-1.768 0l-3.005-3.005a1.252 1.252 0 0 1 0-1.768l1.321-1.321a13.205 13.205 0 0 1-1.388-3.348H1.25c-.689 0-1.25-.561-1.25-1.25v-4.25c0-.689.561-1.25 1.25-1.25h1.862a13.185 13.185 0 0 1 1.387-3.354L3.184 7.956a1.252 1.252 0 0 1 0-1.768l3.005-3.005a1.252 1.252 0 0 1 1.768 0l1.31 1.311A13.201 13.201 0 0 1 12.625 3.1V1.25c0-.689.561-1.25 1.25-1.25h4.25c.689 0 1.25.561 1.25 1.25v1.846a13.2 13.2 0 0 1 3.364 1.392l1.305-1.305a1.252 1.252 0 0 1 1.768 0l3.005 3.005c.487.487.487 1.28 0 1.768l-1.305 1.305a13.2 13.2 0 0 1 1.392 3.364h1.846c.689 0 1.25.561 1.25 1.25v4.25c0 .689-.561 1.25-1.25 1.25H28.9a13.201 13.201 0 0 1-1.394 3.358l1.31 1.311c.487.487.487 1.28 0 1.768l-3.005 3.005a1.252 1.252 0 0 1-1.768 0l-1.315-1.315a13.221 13.221 0 0 1-3.354 1.387v1.862zM9.184 26.081c.116 0 .233.032.336.098a11.965 11.965 0 0 0 3.865 1.603c.286.064.49.317.49.61v2.358h4.25v-2.355c0-.293.204-.547.491-.61a11.97 11.97 0 0 0 3.871-1.601.626.626 0 0 1 .778.085l1.663 1.663 3.005-3.005-1.659-1.659a.625.625 0 0 1-.084-.779 11.98 11.98 0 0 0 1.609-3.875.625.625 0 0 1 .61-.49h2.342v-4.25h-2.339a.625.625 0 0 1-.61-.491 11.965 11.965 0 0 0-1.606-3.88.625.625 0 0 1 .085-.778l1.653-1.653-3.005-3.005-1.653 1.653a.625.625 0 0 1-.778.085 11.965 11.965 0 0 0-3.88-1.606.625.625 0 0 1-.491-.61V1.25h-4.25v2.342a.625.625 0 0 1-.49.61c-1.38.305-2.683.847-3.875 1.609a.626.626 0 0 1-.779-.084L7.074 4.068 4.069 7.073l1.663 1.663c.207.207.243.53.085.778a11.992 11.992 0 0 0-1.601 3.871.625.625 0 0 1-.61.491H1.252v4.25H3.61c.293 0 .547.204.61.49a11.956 11.956 0 0 0 1.603 3.865.625.625 0 0 1-.085.778l-1.669 1.669 3.005 3.005 1.669-1.669a.624.624 0 0 1 .442-.183zm.364-3.629c1.779 1.779 4.116 2.668 6.452 2.668s4.673-.89 6.452-2.668a9.113 9.113 0 0 0 1.713-10.53.625.625 0 1 0-1.118.559 7.866 7.866 0 0 1-1.479 9.088c-1.535 1.535-3.552 2.303-5.569 2.303s-4.033-.768-5.568-2.303c-3.071-3.071-3.071-8.067 0-11.137 2.484-2.484 6.357-3.021 9.418-1.304a.625.625 0 1 0 .612-1.09 9.181 9.181 0 0 0-5.651-1.084 9.043 9.043 0 0 0-5.262 2.595c-3.558 3.558-3.558 9.347 0 12.905zm12.599-11.701a.626.626 0 1 1 .625-.625.627.627 0 0 1-.625.625zm-7.029 9.853a.625.625 0 0 1-.442-.183l-3.952-3.953a.625.625 0 0 1 0-.884l2.242-2.242a.625.625 0 0 1 .884 0l1.269 1.269 3.033-3.033a.625.625 0 0 1 .884 0l2.242 2.242a.625.625 0 0 1 0 .884l-5.717 5.717a.625.625 0 0 1-.442.183zm-3.069-4.577 3.069 3.069 4.833-4.832-1.358-1.358-3.033 3.033a.625.625 0 0 1-.884 0l-1.269-1.269-1.358 1.358z"/>
    </symbol>
    <symbol id="icon-person" viewBox="0 0 32 32">
      <path d="M8.283 0a.533.533 0 0 0-.533.533v.533c0 .388.104.753.286 1.067H7.75a.533.533 0 0 0-.533.533c0 1.486.873 2.773 2.133 3.373l.001 2.494H9.35c-1.177 0-2.133.957-2.133 2.133s.957 2.133 2.133 2.133h.122l.008.109a6.28 6.28 0 0 0 3.07 4.881v.877h-1.686a2.582 2.582 0 0 0-2.579 2.702l-.104.007a4.816 4.816 0 0 0-4.164 4.758V32h1.067v-5.867c0-1.863 1.392-3.454 3.204-3.697l.267-.018c.048.095.101.188.161.278l2.768 4.132v5.171h1.067v-7.453c.916.679 2.032 1.053 3.2 1.053s2.283-.374 3.2-1.053v7.453h1.067v-5.171l2.77-4.134c.059-.09.113-.182.16-.277l.231.015a3.744 3.744 0 0 1 3.239 3.7v5.867h1.067v-5.867c0-2.395-1.79-4.441-4.199-4.761l-.069-.005c.002-.04.002-.08.002-.12a2.583 2.583 0 0 0-2.581-2.581h-1.685v-.895a6.393 6.393 0 0 0 3.079-4.972h.121c1.177 0 2.133-.957 2.133-2.133s-.957-2.133-2.133-2.133V5.865a5.874 5.874 0 0 0-5.867-5.867h-8zM18.95 20.384v-.651h1.685c.835 0 1.515.68 1.515 1.52.003.305-.084.599-.251.85l-1.882 2.809V21.45a.532.532 0 0 0-.533-.533h-.091a.534.534 0 0 1-.443-.533zm-2.085-1.813a6.458 6.458 0 0 0 1.018-.285v2.093A1.6 1.6 0 0 0 18.95 21.9v1.213c-.818.905-1.974 1.42-3.2 1.42s-2.382-.515-3.2-1.419v-1.213a1.6 1.6 0 0 0 1.067-1.517v-2.09a6.255 6.255 0 0 0 3.248.277zm-5.382 2.88v3.461l-1.881-2.807a1.508 1.508 0 0 1-.252-.857c0-.835.679-1.515 1.515-1.515h1.685v.654a.534.534 0 0 1-.443.53h-.091a.533.533 0 0 0-.533.533zM20.073 6.4h1.01v1.635c-.408-.369-.855-.917-1.01-1.635zm-1.085 0c.237 1.624 1.509 2.602 2.096 2.974l.001 1.784-.113 1.454a5.329 5.329 0 0 1-4.302 4.91 5.238 5.238 0 0 1-6.127-4.7l-.126-1.623V9.372c.588-.372 1.858-1.351 2.095-2.973h6.477zM9.35 9.6h.001l.001 1.641.038.492h-.04a1.068 1.068 0 0 1 0-2.134zm2.076-3.2c-.155.718-.602 1.266-1.01 1.634V6.362c.174.025.352.038.533.038h.476zm10.724 4.8V9.6a1.068 1.068 0 0 1 0 2.134h-.041l.041-.533zm-13.813-8h1.546a.533.533 0 0 0 0-1.066 1.068 1.068 0 0 1-1.067-1.067h7.467a4.806 4.806 0 0 1 4.77 4.267H10.95a2.672 2.672 0 0 1-2.613-2.133zm5.28 6.933a1.067 1.067 0 1 1-2.135 0 1.067 1.067 0 0 1 2.135 0zM18.95 11.2a1.067 1.067 0 1 0 0-2.135 1.067 1.067 0 0 0 0 2.135zm-3.479.533.774-1.935-.99-.396-1.067 2.667a.533.533 0 0 0 .496.731h1.6v-1.067h-.812zm-.697 2.134a3.098 3.098 0 0 0 2.199-.911l.754.755a4.157 4.157 0 0 1-2.953 1.223h-.091v-1.067h.091zM9.883 27.2a.533.533 0 1 1 1.066 0v3.2a.533.533 0 1 1-1.066 0v-3.2zm10.667 0a.532.532 0 1 1 1.066 0v3.2a.532.532 0 1 1-1.066 0v-3.2z"/>
    </symbol>
    <symbol id="icon-pacman" viewBox="0 0 32 32">
      <path d="M30.148 5.588A15.964 15.964 0 0 0 18 0C9.163 0 2 7.163 2 16s7.163 16 16 16c4.86 0 9.213-2.167 12.148-5.588L20 16 30.148 5.588zM22 3.769a2.231 2.231 0 1 1 0 4.462 2.231 2.231 0 0 1 0-4.462z"/>
    </symbol>
    <symbol id="icon-github" viewBox="0 0 32 32">
      <path d="M16 .395c-8.836 0-16 7.163-16 16 0 7.069 4.585 13.067 10.942 15.182.8.148 1.094-.347 1.094-.77 0-.381-.015-1.642-.022-2.979-4.452.968-5.391-1.888-5.391-1.888-.728-1.849-1.776-2.341-1.776-2.341-1.452-.993.11-.973.11-.973 1.606.113 2.452 1.649 2.452 1.649 1.427 2.446 3.743 1.739 4.656 1.33.143-1.034.558-1.74 1.016-2.14-3.554-.404-7.29-1.777-7.29-7.907 0-1.747.625-3.174 1.649-4.295-.166-.403-.714-2.03.155-4.234 0 0 1.344-.43 4.401 1.64a15.353 15.353 0 0 1 4.005-.539c1.359.006 2.729.184 4.008.539 3.054-2.07 4.395-1.64 4.395-1.64.871 2.204.323 3.831.157 4.234 1.026 1.12 1.647 2.548 1.647 4.295 0 6.145-3.743 7.498-7.306 7.895.574.497 1.085 1.47 1.085 2.963 0 2.141-.019 3.864-.019 4.391 0 .426.288.925 1.099.768C27.421 29.457 32 23.462 32 16.395c0-8.837-7.164-16-16-16z"/>
    </symbol>
    <symbol id="icon-linkedin" viewBox="0 0 32 32">
      <path d="M29 0H3C1.35 0 0 1.35 0 3v26c0 1.65 1.35 3 3 3h26c1.65 0 3-1.35 3-3V3c0-1.65-1.35-3-3-3zM12 26H8V12h4v14zm-2-16c-1.106 0-2-.894-2-2s.894-2 2-2c1.106 0 2 .894 2 2s-.894 2-2 2zm16 16h-4v-8c0-1.106-.894-2-2-2s-2 .894-2 2v8h-4V12h4v2.481C18.825 13.35 20.087 12 21.5 12c2.488 0 4.5 2.238 4.5 5v9z"/>
    </symbol>
    <symbol id="icon-menu" viewBox="0 0 32 32">
      <path d="M2 6h28v6h-28zM2 14h28v6h-28zM2 22h28v6h-28z"></path>
    </symbol>
  </defs>
</svg>
